<?xml version="1.0" standalone="no"?>
<!DOCTYPE svg PUBLIC "-//W3C//DTD SVG 20010904//EN"
 "http://www.w3.org/TR/2001/REC-SVG-20010904/DTD/svg10.dtd">
<svg version="1.0" xmlns="http://www.w3.org/2000/svg"
 width="360.000000pt" height="320.000000pt" viewBox="0 0 360.000000 320.000000"
 preserveAspectRatio="xMidYMid meet">

<g transform="translate(0.000000,320.000000) scale(0.100000,-0.100000)"
fill="#000000" stroke="none">
<path d="M400 2100 l0 -1100 -200 0 -200 0 0 -300 0 -300 200 0 200 0 0 -200
0 -200 200 0 200 0 0 200 0 200 200 0 200 0 0 300 0 300 -200 0 -200 0 0 1100
0 1100 -200 0 -200 0 0 -1100z"/>
<path d="M1600 3000 l0 -200 -200 0 -200 0 0 -300 0 -300 200 0 200 0 0 -1100
0 -1100 200 0 200 0 0 1100 0 1100 200 0 200 0 0 300 0 300 -200 0 -200 0 0
200 0 200 -200 0 -200 0 0 -200z"/>
<path d="M2800 2100 l0 -1100 -200 0 -200 0 0 -300 0 -300 200 0 200 0 0 -200
0 -200 200 0 200 0 0 200 0 200 200 0 200 0 0 300 0 300 -200 0 -200 0 0 1100
0 1100 -200 0 -200 0 0 -1100z"/>
</g>
</svg>
