<?xml version="1.0" standalone="no"?><!DOCTYPE svg PUBLIC "-//W3C//DTD SVG 1.1//EN" "http://www.w3.org/Graphics/SVG/1.1/DTD/svg11.dtd" [<!ENTITY nbsp "&#160;">]><svg id="svgContent" version="1.1" width="520" height="600" xmlns="http://www.w3.org/2000/svg" xmlns:xlink="http://www.w3.org/1999/xlink" viewBox="0 0 520 600"><g id="svgPath"><path d="M 80 60 L 80 120 60 120 L 40 120 40 180 L 40 240 20 240 L 0 240 0 320 L 0 400 60 400 L 120 400 120 500 L 120 600 160 600 L 200 600 200 580 L 200 560 220 560 L 240 560 240 540 L 240 520 260 520 L 280 520 280 500 L 280 480 300 480 L 320 480 320 460 L 320 440 340 440 L 360 440 360 420 L 360 400 380 400 L 400 400 400 380 L 400 360 420 360 L 440 360 440 320 L 440 280 380 280 L 320 280 320 260 L 320 240 340 240 L 360 240 360 220 L 360 200 380 200 L 400 200 400 180 L 400 160 420 160 L 440 160 440 140 L 440 120 460 120 L 480 120 480 100 L 480 80 500 80 L 520 80 520 40 L 520 0 300 0 L 80 0 80 60" stroke="none" fill="#040404" fill-rule="evenodd"></path></g></svg>